<svg xmlns="http://www.w3.org/2000/svg" width="100%" viewBox="0 0 249 32" fill="none"><path fill-rule="evenodd" clip-rule="evenodd" d="M61.328 10.1637L64.384 10.7471V10.7483C68.7446 11.6062 72.8985 13.1852 72.8985 18.1982C72.8985 23.2111 67.92 25.7858 63.0105 25.7858C57.1052 25.7858 53.0536 22.5575 52.5391 17.0991H56.8308C57.5865 20.4985 59.7834 22.2154 63.2172 22.2154C66.1699 22.2154 68.5391 20.8763 68.5391 18.4726C68.5391 15.9311 65.792 15.0732 63.4228 14.6265L60.4012 14.0431C56.4874 13.2529 53.2259 11.2271 53.2259 7.00431C53.2259 2.33477 58.0677 0 62.6339 0C67.5434 0 71.3883 2.23138 72.384 7.41662H68.1612C67.44 4.42954 64.8308 3.57169 62.3926 3.57169C60.4702 3.57169 57.6197 4.42954 57.6197 6.86769C57.6197 8.79015 59.1988 9.75139 61.328 10.1637ZM78.3908 9.33928C79.4887 7.5202 81.4124 6.45559 83.8838 6.45559V6.45312C88.381 6.45312 91.8148 10.1614 91.8148 16.1011C91.8148 22.0408 88.381 25.7836 83.8838 25.7836C81.4124 25.7836 79.4899 24.719 78.3908 22.8999V31.3467H74.3047V6.86666H78.3908V9.33928ZM78.2185 16.1024C78.2185 20.3596 80.3133 22.4544 82.9915 22.4544C85.8407 22.4544 87.5576 19.9817 87.5576 16.1024C87.5576 12.223 85.8407 9.78482 82.9915 9.78482C80.3133 9.78482 78.2185 11.8451 78.2185 16.1024ZM97.3961 10.1625V6.86649H93.3789V25.3379H97.4651V15.6554C97.4651 11.9471 98.942 10.917 101.517 10.917C102.135 10.917 102.787 10.9514 103.474 11.0203V6.90095C103.165 6.86649 102.718 6.83203 102.409 6.83203C100.178 6.86649 98.3918 8.10219 97.3961 10.1625ZM104.785 6.86719H108.871V25.3386H104.785V6.86719ZM108.871 0.445312H104.785V4.56593H108.871V0.445312ZM114.789 9.44216C115.854 7.51969 117.811 6.45508 120.386 6.45508C124.848 6.45508 126.669 9.33877 126.669 13.7338V25.3388H122.583V14.7295C122.583 12.2237 122.206 9.78554 119.081 9.78554C115.956 9.78554 114.789 12.1892 114.789 15.5197V25.3388H110.703V6.86739H114.789V9.44216ZM136.046 6.45508C138.517 6.45508 140.439 7.5189 141.538 9.33673V6.86616H145.624V23.4852C145.624 26.5068 144.87 28.6348 143.393 30.0083C141.917 31.3819 139.719 31.9997 136.835 31.9997C132.783 31.9997 129.556 30.3862 128.938 26.3345H132.99C133.368 28.0514 134.5 28.7726 136.938 28.7726C138.759 28.7726 139.926 28.2582 140.612 27.4335C141.299 26.6434 141.539 25.5099 141.539 24.3086V22.1462C140.441 23.9652 138.519 25.0299 136.046 25.0299C131.686 25.0299 128.012 21.4938 128.012 15.7252C128.012 9.95662 131.686 6.45508 136.046 6.45508ZM136.938 21.8015C134.226 21.8015 132.269 19.5012 132.269 15.724C132.269 11.9468 134.226 9.71539 136.938 9.71539C139.651 9.71539 141.711 11.6034 141.711 15.724C141.711 19.8446 139.617 21.8015 136.938 21.8015ZM151.403 9.33762C152.5 7.51854 154.424 6.45393 156.895 6.45393V6.4527C161.256 6.4527 164.93 10.161 164.93 16.1007C164.93 22.0404 161.256 25.7832 156.895 25.7832C154.424 25.7832 152.502 24.7185 151.403 22.8995V25.3376H147.316V0.445312H151.403V9.33762ZM151.23 16.1007C151.23 20.3579 153.325 22.4527 156.003 22.4527C158.716 22.4527 160.673 19.9801 160.673 16.1007C160.673 12.2213 158.681 9.78316 156.003 9.78316C153.325 9.78316 151.23 11.8435 151.23 16.1007ZM175.091 6.45508C170.594 6.45508 165.992 9.47662 165.992 16.1375C165.992 22.7985 170.593 25.7855 175.091 25.7855C179.59 25.7855 184.19 22.7985 184.19 16.1375C184.19 9.47662 179.59 6.45508 175.091 6.45508ZM175.091 22.4539C172.516 22.4539 170.216 20.3935 170.216 16.1363C170.216 11.8791 172.516 9.78431 175.091 9.78431C177.666 9.78431 179.966 11.8791 179.966 16.1363C179.966 20.3935 177.666 22.4539 175.091 22.4539ZM193.656 6.31641C198.085 6.31641 201.553 8.34225 201.45 14.2475H201.453C201.453 14.643 201.441 15.2627 201.426 15.9739C201.407 16.9315 201.384 18.055 201.384 19.0204C201.384 21.3552 201.59 23.7933 201.933 25.3379H198.19C198.159 25.1582 198.128 24.9962 198.098 24.8382C197.995 24.3027 197.9 23.8129 197.847 22.8321C196.679 24.8235 194.482 25.7847 191.77 25.7847C187.752 25.7847 184.938 23.6223 184.938 20.2573C184.938 15.6555 190.602 14.4887 197.366 13.8019V13.4586C197.366 10.2992 195.58 9.33794 193.52 9.33794C191.459 9.33794 189.915 10.437 189.811 12.6684H185.794C186.069 8.89118 189.228 6.31641 193.656 6.31641ZM192.659 22.7275C195.681 22.7275 197.467 21.1829 197.467 18.0579L197.465 18.0592V16.6512C191.629 17.2001 189.26 18.0235 189.26 20.1527C189.26 21.7663 190.599 22.7275 192.659 22.7275ZM207.326 10.1625V6.86646H203.308V25.3379H207.395V15.6554C207.395 11.9471 208.872 10.9169 211.446 10.9169C212.064 10.9169 212.716 10.9514 213.403 11.0203V6.90093C213.094 6.86646 212.648 6.832 212.339 6.832C210.107 6.86646 208.321 8.10216 207.326 10.1625ZM221.464 6.45393C223.936 6.45393 225.858 7.51855 226.957 9.33762V0.445312H231.043V25.3389H226.957V22.9007C225.859 24.7198 223.937 25.7844 221.464 25.7844C217.104 25.7844 213.43 22.0072 213.43 16.1019C213.43 10.1967 217.104 6.45393 221.464 6.45393ZM217.687 16.1007C217.687 20.0145 219.644 22.4527 222.356 22.4527C225.035 22.4527 227.129 20.3579 227.129 16.1007C227.129 11.8435 225.069 9.78316 222.356 9.78316C219.644 9.78316 217.687 12.1869 217.687 16.1007ZM241.52 14.318L238.91 13.8035C237.331 13.4946 236.439 12.8423 236.439 11.6066C236.439 10.3709 238.087 9.58072 239.873 9.58072C241.933 9.58072 243.478 10.233 243.925 11.9155H247.769C247.014 8.20719 243.718 6.45703 240.113 6.45703C236.096 6.45703 232.594 8.5518 232.594 11.8133C232.594 15.0749 235.032 16.5863 238.156 17.2041L240.937 17.753C242.758 18.0964 244.13 18.7832 244.13 20.2933C244.13 21.8035 242.551 22.697 240.422 22.697C238.018 22.697 236.645 21.598 236.268 19.71H232.285C232.732 23.2115 235.752 25.7875 240.285 25.7875C244.473 25.7875 248.114 23.6583 248.114 19.8133C248.114 16.2084 245.264 15.0416 241.522 14.3204L241.52 14.318ZM8.86154 7.05241H17.7231V0.40625H35.4462V18.1293H26.5846V24.7755H17.7231V31.4216H0V13.6986H8.86154V7.05241ZM25.6246 9.74533L26.8763 9.98656C27.8572 10.1712 28.9945 10.5269 28.9945 11.5792C28.9945 12.5736 28.0135 13.1287 26.7902 13.1287C25.3686 13.1287 24.4578 12.4186 24.1452 11.0106H22.368C22.5809 13.2715 24.2597 14.6081 26.7052 14.6081C28.7385 14.6081 30.8 13.5423 30.8 11.4659C30.8 9.38964 29.0794 8.7361 27.2739 8.38041L26.0086 8.13918C25.1274 7.96933 24.4726 7.57056 24.4726 6.77425C24.4726 5.76502 25.6529 5.40933 26.4492 5.40933C27.4585 5.40933 28.5391 5.76502 28.8382 7.00194H30.5871C30.1748 4.85425 28.5822 3.92994 26.5489 3.92994C24.6572 3.92994 22.6523 4.89733 22.6523 6.83087C22.6523 8.57979 24.0037 9.41794 25.6246 9.74533Z" fill="currentColor"></path></svg>
